<svg xmlns="http://www.w3.org/2000/svg" width="95.529" height="101.282" viewBox="0 0 95.529 101.282"><g transform="translate(-572.243 -98)"><path d="M2562.243,1286.1s1.054-2.81,5.855-2.81,6.206,2.81,6.206,2.81,1.639,19.79,11.124,28.923,16.979,13.115,23.42,13,19.321-1.405,29.86,5.972,22.249,24.474,18.268,36.3-11.359,7.026-11.359,7.026-5.738-9.134-6.909-11.359-1.522.82-1.522.82V1377.9l-48.01-.586s-7.26-2.459-7.143-7.026,0-19.438,0-19.438a35.308,35.308,0,0,0-6.44-14.169c-5.387-7.26-11.476-19.321-12.061-26.23S2562.243,1286.1,2562.243,1286.1Z" transform="translate(-1990 -1179)" fill="#fff"/><circle cx="21" cy="21" r="21" transform="translate(601 98)" fill="#fff"/></g></svg>